<svg xmlns="http://www.w3.org/2000/svg" width="256" height="257" viewBox="0 0 256 257" fill="none">
  <defs>
    <linearGradient id="grad1" x1="0%" y1="0%" x2="100%" y2="100%">
      <stop offset="0%" style="stop-color:#41D1FF;stop-opacity:1" />
      <stop offset="100%" style="stop-color:#BD34FE;stop-opacity:1" />
    </linearGradient>
    <linearGradient id="grad2" x1="0%" y1="0%" x2="100%" y2="100%">
      <stop offset="0%" style="stop-color:#FFEA83;stop-opacity:1" />
      <stop offset="8.333%" style="stop-color:#FFDD35;stop-opacity:1" />
      <stop offset="100%" style="stop-color:#FFA800;stop-opacity:1" />
    </linearGradient>
  </defs>
  
  <!-- Purple V shape -->
  <path fill="url(#grad1)" d="M255.153 37.938L134.897 252.976c-2.483 4.44-8.862 4.466-11.382.048L.875 37.958c-2.746-4.814 1.371-10.646 6.827-9.67l120.385 21.517a6.537 6.537 0 0 0 2.322-.004l117.867-21.483c5.438-.991 9.574 4.796 6.877 9.62Z" />
  
  <!-- Stacks -->
  <g transform="translate(70, 60) scale(0.7)">
    <rect x="20" y="120" width="140" height="30" rx="5" ry="5" fill="url(#grad2)" />
    <rect x="30" y="80" width="120" height="30" rx="5" ry="5" fill="url(#grad2)" />
    <rect x="40" y="40" width="100" height="30" rx="5" ry="5" fill="url(#grad2)" />
  </g>
</svg>
